#!OML:ASF E:\Steps\Project 1\Capture day 1\Session 2\Subject.ASF
:FULLY-SPECIFIED
:DEGREES
547
root 3.81785 18.0268 17.4129 -153.396 -2.38385 173.617
lowerback -23.4173 -2.22279 -5.82444
upperback 0.588902 -1.55545 0.248834
thorax 14.0609 -1.22332 3.06286
lowerneck 0.618505 -1.12909 -0.112685
upperneck 24.4627 -4.69704 1.35571
head 7.43841 -3.12247 0.0516194
rclavicle -9.34288e-015 3.45885e-014
rhumerus -44.0398 -15.2623 -74.8878
rradius 34.4708
rwrist -5.54408
rhand -8.77966 -56.3981
rfingers 7.12502
rthumb 17.1585 634.34
lclavicle -9.34288e-015 3.45885e-014
lhumerus -31.3654 -1.86412 81.9352
lradius 26.7208
lwrist -2.03751
lhand -21.7013 -13.8905
lfingers 7.12502
lthumb 4.69721 16.0374
rfemur -32.8959 8.39818 12.1168
rtibia 18.9872
rfoot -19.6281 -5.55386
rtoes -21.0373
lfemur -34.9949 -16.1342 -23.1473
ltibia 24.5516
lfoot -14.563 0.515635
ltoes -28.8438
548
root 3.83735 18.0196 17.3937 -153.233 -2.13857 173.754
lowerback -23.852 -2.12138 -5.88353
upperback 0.615587 -1.37984 0.252762
thorax 14.324 -1.15749 3.15716
lowerneck 0.558218 -1.14281 -0.11095
upperneck 24.5401 -4.73028 1.37372
head 7.47569 -3.13689 0.0524876
rclavicle 1.05356e-014 3.97569e-016
rhumerus -44.0248 -15.4552 -74.863
rradius 34.5012
rwrist -5.14092
rhand -8.12718 -56.6764
rfingers 7.12502
rthumb 17.7865 634.117
lclavicle 1.05356e-014 3.97569e-016
lhumerus -31.3397 -1.99777 81.9808
lradius 26.9056
lwrist -1.77091
lhand -21.623 -13.5495
lfingers 7.12502
lthumb 4.77277 16.3768
rfemur -33.0854 8.46278 12.3169
rtibia 19.0274
rfoot -19.6641 -5.25368
rtoes -21.0222
lfemur -35.2007 -16.0289 -23.1817
ltibia 24.2563
lfoot -14.5829 0.259583
ltoes -29.3344
549
root 3.85702 18.0139 17.3761 -153.122 -2.09897 173.848
lowerback -24.0392 -2.09342 -5.91767
upperback 0.536126 -1.33024 0.227062
thorax 14.3305 -1.13935 3.16254
lowerneck 0.678525 -1.12692 -0.0752783
upperneck 24.6276 -4.77501 1.48249
head 7.48682 -3.15911 0.0790556
rclavicle 9.34288e-015 3.57812e-015
rhumerus -44.1067 -15.4715 -74.9937
rradius 34.4623
rwrist -5.1242
rhand -7.9061 -57.1581
rfingers 7.12502
rthumb 17.9992 633.655
lclavicle 9.34288e-015 3.57812e-015
lhumerus -31.6357 -2.16007 81.9212
lradius 27.1828
lwrist -1.52574
lhand -21.584 -13.3788
lfingers 7.12502
lthumb 4.81046 16.5465
rfemur -33.1138 8.30328 12.5754
rtibia 18.9583
rfoot -19.6484 -4.93116
rtoes -20.8655
lfemur -35.3525 -15.883 -23.2705
ltibia 23.9925
lfoot -14.5004 0.0193003
ltoes -32.7257
550
root 3.87554 18.0098 17.3562 -153.124 -2.05587 173.911
lowerback -23.7353 -2.05242 -5.8915
upperback 0.244743 -1.3242 0.125503
thorax 13.8064 -1.1208 3.038
lowerneck 0.781253 -1.04644 0.119181
upperneck 25.0537 -4.7969 1.443
head 7.60828 -3.19061 0.0229462
rclavicle 3.08116e-015 -5.56597e-015
rhumerus -44.6017 -15.3266 -75.1971
rradius 34.5292
rwrist -5.33958
rhand -8.45265 -57.1645
rfingers 7.12502
rthumb 17.4733 633.601
lclavicle 3.08116e-015 -5.56597e-015
lhumerus -32.3458 -2.32108 81.7259
lradius 27.4206
lwrist -1.5532
lhand -21.8302 -13.4303
lfingers 7.12502
lthumb 4.57277 16.5004
rfemur -33.07 8.30881 12.7564
rtibia 19.012
rfoot -19.7742 -4.75528
rtoes -20.5594
lfemur -35.2953 -15.8199 -23.3706
ltibia 23.556
lfoot -14.3897 0.00396922
ltoes -36.2868
551
root 3.89191 18.009 17.3376 -153.189 -2.0133 174.012
lowerback -24.0088 -2.04517 -5.91691
upperback 0.37984 -1.27555 0.118663
thorax 14.1176 -1.10756 3.05749
lowerneck 0.741144 -1.03391 0.205564
upperneck 25.042 -4.76469 1.40292
head 7.60843 -3.16677 -0.00309871
rclavicle -4.37326e-015 -3.57812e-015
rhumerus -44.4452 -15.408 -75.3525
rradius 34.589
rwrist -5.39762
rhand -8.97291 -57.222
rfingers 7.12502
rthumb 16.9725 633.5
lclavicle -4.37326e-015 -3.57812e-015
lhumerus -32.1658 -2.13305 81.6048
lradius 27.3643
lwrist -1.82249
lhand -21.9232 -13.5893
lfingers 7.12502
lthumb 4.48296 16.3433
rfemur -32.9863 8.47628 12.9261
rtibia 19.0919
rfoot -19.9084 -4.76093
rtoes -20.3625
lfemur -35.2109 -16.0564 -23.2586
ltibia 23.2058
lfoot -14.268 -0.321981
ltoes -34.6292
552
root 3.90428 18.0096 17.3156 -153.284 -1.98114 174.122
lowerback -23.8591 -2.05146 -5.86605
upperback 0.271735 -1.32156 0.134262
thorax 13.9078 -1.12109 3.03241
lowerneck 0.972086 -0.921188 0.107534
upperneck 25.0303 -4.65419 1.52486
head 7.56776 -3.12715 0.0641843
rclavicle 2.78299e-015 -8.74653e-015
rhumerus -44.6449 -15.2507 -75.402
rradius 34.6194
rwrist -5.39921
rhand -8.8803 -57.2999
rfingers 7.12502
rthumb 17.0617 633.429
lclavicle 2.78299e-015 -8.74653e-015
lhumerus -32.3526 -1.75702 81.4535
lradius 27.2843
lwrist -2.00634
lhand -21.9186 -13.6882
lfingers 7.12502
lthumb 4.4874 16.2442
rfemur -32.7389 8.62529 13.1137
rtibia 18.9376
rfoot -19.8745 -4.76059
rtoes -20.0615
lfemur -35.0354 -16.2896 -23.1513
ltibia 22.8466
lfoot -13.96 -0.692923
ltoes -32.1451
553
root 3.91709 18.0079 17.2917 -153.334 -1.93443 174.2
lowerback -24.1235 -2.08461 -5.89164
upperback 0.394999 -1.33253 0.162924
thorax 14.2073 -1.13606 3.07172
lowerneck 1.01794 -0.857325 -0.038446
upperneck 24.7918 -4.52759 1.67478
head 7.48393 -3.05521 0.152049
rclavicle 6.95746e-016 1.59028e-015
rhumerus -44.4037 -15.0925 -75.5636
rradius 34.5994
rwrist -5.58245
rhand -8.63309 -57.2345
rfingers 7.12502
rthumb 17.2996 633.515
lclavicle 6.95746e-016 1.59028e-015
lhumerus -32.2229 -1.63606 81.4296
lradius 27.3235
lwrist -1.84927
lhand -22.0248 -13.6172
lfingers 7.12502
lthumb 4.38483 16.3175
rfemur -32.5003 8.70919 13.289
rtibia 18.7501
rfoot -19.7795 -4.58395
rtoes -19.1625
lfemur -34.7746 -16.241 -23.1994
ltibia 22.2871
lfoot -13.35 -0.751548
ltoes -33.191
554
root 3.93198 18.0021 17.2701 -153.337 -1.85394 174.278
lowerback -23.9734 -2.00361 -5.83362
upperback 0.224395 -1.26064 0.068606
thorax 13.9072 -1.09057 2.9584
lowerneck 1.25694 -0.787998 0.141177
upperneck 24.6506 -4.43126 1.68376
head 7.39126 -2.99804 0.137003
rclavicle -8.15017e-015 -5.96354e-015
rhumerus -44.7753 -14.9423 -75.7584
rradius 34.7758
rwrist -5.83741
rhand -8.54095 -57.2674
rfingers 7.12502
rthumb 17.3883 633.49
lclavicle -8.15017e-015 -5.96354e-015
lhumerus -32.6656 -2.01397 81.3593
lradius 27.6626
lwrist -1.47025
lhand -21.9837 -13.339
lfingers 7.12502
lthumb 4.42453 16.5948
rfemur -32.4311 8.73647 13.4942
rtibia 18.7909
rfoot -19.7985 -4.31209
rtoes -18.349
lfemur -34.5275 -16.1131 -23.2266
ltibia 21.6793
lfoot -12.4455 -1.07648
ltoes -32.4152
555
root 3.94953 17.9921 17.2499 -153.291 -1.77984 174.419
lowerback -24.164 -1.9943 -5.88279
upperback 0.200418 -1.23471 0.123971
thorax 13.9864 -1.08848 3.05709
lowerneck 0.976552 -0.802306 -0.0682192
upperneck 25.0652 -4.5437 1.78839
head 7.58676 -3.07331 0.186222
rclavicle -2.5842e-015 -2.38542e-015
rhumerus -44.8139 -14.8878 -75.7651
rradius 34.8354
rwrist -5.90875
rhand -8.61342 -57.496
rfingers 7.12502
rthumb 17.3185 633.256
lclavicle -2.5842e-015 -2.38542e-015
lhumerus -32.7399 -1.97445 81.3824
lradius 27.7891
lwrist -1.24946
lhand -21.9669 -13.2981
lfingers 7.12502
lthumb 4.44076 16.6354
rfemur -32.3859 8.79743 13.7701
rtibia 18.7152
rfoot -19.7455 -4.1271
rtoes -17.5925
lfemur -34.3984 -16.0619 -23.0569
ltibia 21.1072
lfoot -11.3351 -1.57719
ltoes -29.1911
556
root 3.96664 17.9877 17.2276 -153.402 -1.81426 174.566
lowerback -24.2422 -2.09085 -5.91679
upperback 0.292955 -1.35231 0.25613
thorax 14.1581 -1.15241 3.18529
lowerneck 0.796151 -0.721123 -0.314245
upperneck 25.0671 -4.38965 1.79908
head 7.62062 -3.01113 0.238392
rclavicle 4.87022e-015 1.03368e-014
rhumerus -44.5181 -14.8027 -75.7022
rradius 34.6699
rwrist -5.84681
rhand -8.75609 -57.4216
rfingers 7.12502
rthumb 17.1812 633.318
lclavicle 4.87022e-015 1.03368e-014
lhumerus -32.5492 -1.48581 81.3416
lradius 27.6398
lwrist -1.25051
lhand -21.8503 -13.599
lfingers 7.12502
lthumb 4.55332 16.3321
rfemur -32.0323 8.95107 14.0218
rtibia 18.4111
rfoot -19.6403 -4.11181
rtoes -16.6029
lfemur -34.1089 -16.1288 -22.8363
ltibia 20.5351
lfoot -9.84172 -1.87762
ltoes -25.2817
